<svg width="159" height="159" fill="none" xmlns="http://www.w3.org/2000/svg"><path d="M159 79.5c0 43.907-35.593 79.5-79.5 79.5S0 123.407 0 79.5 35.593 0 79.5 0 159 35.593 159 79.5z" fill="#501414"/><path d="M126.385 78.277c0 26.119-20.991 47.292-46.885 47.292s-46.885-21.173-46.885-47.292c0-26.119 20.991-47.292 46.885-47.292s46.885 21.173 46.885 47.292z" fill="#fff"/><path d="M67.225 61.382c0-3.5 1.206-6.337 3.618-8.512 2.459-2.223 5.651-3.335 9.576-3.335 3.926 0 6.929 1.088 9.01 3.264 2.128 2.128 3.192 4.634 3.192 7.52 0 2.884-.851 5.272-2.554 7.164-1.702 1.892-4.162 3.783-7.377 5.675 3.783 2.223 6.739 4.47 8.867 6.74 2.175 2.27 3.263 4.941 3.263 8.015 0 3.973-1.419 7.307-4.256 10.002-2.79 2.696-6.408 4.044-10.854 4.044-4.398 0-8.087-1.111-11.066-3.334-2.98-2.27-4.47-5.32-4.47-9.151 0-3.878 1.041-6.976 3.122-9.293 2.128-2.317 5.084-4.587 8.867-6.81-2.837-1.75-5.037-3.547-6.597-5.392-1.56-1.891-2.341-4.09-2.341-6.597zM91.13 87.913c0-2.6-1.371-5.037-4.114-7.306-2.365-1.987-4.99-3.808-7.874-5.463-5.628 3.216-9.104 6.314-10.428 9.293-.568 1.372-.852 2.861-.852 4.47 0 3.31 1.088 5.793 3.263 7.448 2.223 1.655 5.084 2.483 8.584 2.483 3.547 0 6.337-1.017 8.37-3.05 2.034-2.034 3.051-4.659 3.051-7.875zm-1.915-27.311c0-2.27-.757-4.162-2.27-5.675-1.466-1.514-3.689-2.27-6.668-2.27-2.933 0-5.274.78-7.023 2.34-1.75 1.561-2.625 3.524-2.625 5.889 0 2.364.757 4.28 2.27 5.746 1.513 1.466 3.76 3.05 6.74 4.752 3.168-1.797 5.556-3.475 7.164-5.036 1.608-1.608 2.412-3.523 2.412-5.746z" fill="#452828"/><path d="M37.508 42.808c0 6.53-5.111 11.823-11.416 11.823-6.304 0-11.415-5.294-11.415-11.823 0-6.53 5.11-11.823 11.415-11.823 6.305 0 11.416 5.293 11.416 11.823zM53 23.646a7.338 7.338 0 11-14.677 0 7.338 7.338 0 0114.677 0z" fill="#fff"/></svg>