<svg width="254" height="254" fill="none" xmlns="http://www.w3.org/2000/svg"><circle cx="126.917" cy="126.639" r="126.639" fill="#fff"/><circle cx="78.778" cy="92.5" r="17.5" fill="#501414"/><circle cx="78.778" cy="92.5" r="17.5" fill="#501414"/><circle cx="175.778" cy="92.5" r="17.5" fill="#501414"/><circle cx="175.778" cy="92.5" r="17.5" fill="#501414"/><path d="M51.278 150.965c0-1.809 1.922-3.032 3.585-2.32C63.956 152.539 89.848 162 126.778 162c36.929 0 62.821-9.461 71.915-13.355 1.662-.712 3.585.511 3.585 2.32 0 .352-.065.675-.221.991-2.543 5.139-27.074 52.044-75.279 52.044-48.206 0-72.736-46.905-75.28-52.044a2.174 2.174 0 01-.22-.991z" fill="#501414"/></svg>