<svg width="254" height="254" fill="none" xmlns="http://www.w3.org/2000/svg"><circle cx="127.194" cy="126.639" r="126.639" fill="#fff"/><circle cx="79.055" cy="92.5" r="17.5" fill="#501414"/><circle cx="79.055" cy="92.5" r="17.5" fill="#501414"/><circle cx="176.055" cy="92.5" r="17.5" fill="#501414"/><circle cx="176.055" cy="92.5" r="17.5" fill="#501414"/><path d="M58.555 190.349c0 1.441 1.724 2.291 2.9 1.458 7.842-5.563 31.16-19.781 64.6-19.781 33.441 0 56.759 14.218 64.601 19.781 1.176.833 2.899-.017 2.899-1.458 0-.247-.038-.46-.147-.682-1.981-4.038-23.917-46.667-67.353-46.667-43.436 0-65.371 42.629-67.352 46.667a1.475 1.475 0 00-.148.682z" fill="#501414"/></svg>